HIERARCHY
ROOT mixamorig:Hips
{
	OFFSET -0.000008 104.274872 1.554316
	CHANNELS 6 Xposition Yposition Zposition Xrotation Yrotation Zrotation
	JOINT mixamorig:Spine
	{
		OFFSET -0.000005 10.181595 0.131519
		CHANNELS 6 Xposition Yposition Zposition Xrotation Yrotation Zrotation
		JOINT mixamorig:Spine1
		{
			OFFSET -0.000000 9.893959 -1.470707
			CHANNELS 6 Xposition Yposition Zposition Xrotation Yrotation Zrotation
			JOINT mixamorig:Spine2
			{
				OFFSET -0.000000 9.220757 -1.370641
				CHANNELS 6 Xposition Yposition Zposition Xrotation Yrotation Zrotation
				JOINT mixamorig:Neck
				{
					OFFSET 0.000001 16.740417 -2.049036
					CHANNELS 6 Xposition Yposition Zposition Xrotation Yrotation Zrotation
					JOINT mixamorig:Head
					{
						OFFSET 0.000000 9.617874 1.685006
						CHANNELS 6 Xposition Yposition Zposition Xrotation Yrotation Zrotation
						JOINT mixamorig:HeadTop_End
						{
							OFFSET 0.000002 22.037354 7.501101
							CHANNELS 6 Xposition Yposition Zposition Xrotation Yrotation Zrotation
							End Site
							{
								OFFSET 0.000168 2310.654297 -282.823242
							}
						}
					}
				}
				JOINT mixamorig:RightShoulder
				{
					OFFSET -4.569970 11.014908 -2.160885
					CHANNELS 6 Xposition Yposition Zposition Xrotation Yrotation Zrotation
					JOINT mixamorig:RightArm
					{
						OFFSET -10.592851 -0.524811 -2.232101
						CHANNELS 6 Xposition Yposition Zposition Xrotation Yrotation Zrotation
						JOINT mixamorig:RightForeArm
						{
							OFFSET -27.841511 0.000031 -0.000004
							CHANNELS 6 Xposition Yposition Zposition Xrotation Yrotation Zrotation
							JOINT mixamorig:RightHand
							{
								OFFSET -28.328831 -0.000015 0.000015
								CHANNELS 6 Xposition Yposition Zposition Xrotation Yrotation Zrotation
								JOINT mixamorig:RightHandThumb1
								{
									OFFSET -2.464806 -1.573990 2.681852
									CHANNELS 6 Xposition Yposition Zposition Xrotation Yrotation Zrotation
									JOINT mixamorig:RightHandThumb2
									{
										OFFSET -3.215179 -1.872803 1.924282
										CHANNELS 6 Xposition Yposition Zposition Xrotation Yrotation Zrotation
										JOINT mixamorig:RightHandThumb3
										{
											OFFSET -2.654831 -1.527969 1.512609
											CHANNELS 6 Xposition Yposition Zposition Xrotation Yrotation Zrotation
											JOINT mixamorig:RightHandThumb4
											{
												OFFSET -2.018814 -1.152008 1.108052
												CHANNELS 6 Xposition Yposition Zposition Xrotation Yrotation Zrotation
												End Site
												{
													OFFSET -188.809540 -114.533607 132.431396
												}
											}
										}
									}
								}
								JOINT mixamorig:RightHandIndex1
								{
									OFFSET -9.108284 -0.517868 2.259835
									CHANNELS 6 Xposition Yposition Zposition Xrotation Yrotation Zrotation
									JOINT mixamorig:RightHandIndex2
									{
										OFFSET -3.699989 0.000000 0.001215
										CHANNELS 6 Xposition Yposition Zposition Xrotation Yrotation Zrotation
										JOINT mixamorig:RightHandIndex3
										{
											OFFSET -2.850006 0.000031 -0.000522
											CHANNELS 6 Xposition Yposition Zposition Xrotation Yrotation Zrotation
											JOINT mixamorig:RightHandIndex4
											{
												OFFSET -2.772186 -0.000015 -0.000020
												CHANNELS 6 Xposition Yposition Zposition Xrotation Yrotation Zrotation
												End Site
												{
													OFFSET -277.218445 0.000000 -0.050231
												}
											}
										}
									}
								}
								JOINT mixamorig:RightHandMiddle1
								{
									OFFSET -9.532516 -0.000031 -0.000023
									CHANNELS 6 Xposition Yposition Zposition Xrotation Yrotation Zrotation
									JOINT mixamorig:RightHandMiddle2
									{
										OFFSET -3.700005 -0.000015 0.003713
										CHANNELS 6 Xposition Yposition Zposition Xrotation Yrotation Zrotation
										JOINT mixamorig:RightHandMiddle3
										{
											OFFSET -2.949974 0.000015 -0.002054
											CHANNELS 6 Xposition Yposition Zposition Xrotation Yrotation Zrotation
											JOINT mixamorig:RightHandMiddle4
											{
												OFFSET -2.946640 0.000000 -0.000156
												CHANNELS 6 Xposition Yposition Zposition Xrotation Yrotation Zrotation
												End Site
												{
													OFFSET -294.664337 0.000000 -0.113670
												}
											}
										}
									}
								}
								JOINT mixamorig:RightHandRing1
								{
									OFFSET -9.103600 -0.043076 -1.865134
									CHANNELS 6 Xposition Yposition Zposition Xrotation Yrotation Zrotation
									JOINT mixamorig:RightHandRing2
									{
										OFFSET -3.379288 0.000000 -0.001055
										CHANNELS 6 Xposition Yposition Zposition Xrotation Yrotation Zrotation
										JOINT mixamorig:RightHandRing3
										{
											OFFSET -2.889687 -0.000015 0.000379
											CHANNELS 6 Xposition Yposition Zposition Xrotation Yrotation Zrotation
											JOINT mixamorig:RightHandRing4
											{
												OFFSET -2.638809 -0.000015 0.000941
												CHANNELS 6 Xposition Yposition Zposition Xrotation Yrotation Zrotation
												End Site
												{
													OFFSET -263.880371 0.000000 0.516020
												}
											}
										}
									}
								}
								JOINT mixamorig:RightHandPinky1
								{
									OFFSET -8.076683 -0.486710 -3.806280
									CHANNELS 6 Xposition Yposition Zposition Xrotation Yrotation Zrotation
									JOINT mixamorig:RightHandPinky2
									{
										OFFSET -3.600014 -0.000015 -0.003747
										CHANNELS 6 Xposition Yposition Zposition Xrotation Yrotation Zrotation
										JOINT mixamorig:RightHandPinky3
										{
											OFFSET -2.099983 0.000000 -0.005739
											CHANNELS 6 Xposition Yposition Zposition Xrotation Yrotation Zrotation
											JOINT mixamorig:RightHandPinky4
											{
												OFFSET -2.115768 -0.000031 -0.003680
												CHANNELS 6 Xposition Yposition Zposition Xrotation Yrotation Zrotation
												End Site
												{
													OFFSET -211.577087 0.000000 -0.350686
												}
											}
										}
									}
								}
							}
						}
					}
				}
				JOINT mixamorig:LeftShoulder
				{
					OFFSET 4.570447 11.014725 -2.160855
					CHANNELS 6 Xposition Yposition Zposition Xrotation Yrotation Zrotation
					JOINT mixamorig:LeftArm
					{
						OFFSET 10.592371 -0.524597 -2.232119
						CHANNELS 6 Xposition Yposition Zposition Xrotation Yrotation Zrotation
						JOINT mixamorig:LeftForeArm
						{
							OFFSET 27.841532 -0.000031 0.000026
							CHANNELS 6 Xposition Yposition Zposition Xrotation Yrotation Zrotation
							JOINT mixamorig:LeftHand
							{
								OFFSET 28.328846 -0.000061 0.000022
								CHANNELS 6 Xposition Yposition Zposition Xrotation Yrotation Zrotation
								JOINT mixamorig:LeftHandThumb1
								{
									OFFSET 2.466141 -1.576172 2.681732
									CHANNELS 6 Xposition Yposition Zposition Xrotation Yrotation Zrotation
									JOINT mixamorig:LeftHandThumb2
									{
										OFFSET 3.217812 -1.872070 1.916482
										CHANNELS 6 Xposition Yposition Zposition Xrotation Yrotation Zrotation
										JOINT mixamorig:LeftHandThumb3
										{
											OFFSET 2.656029 -1.528778 1.514513
											CHANNELS 6 Xposition Yposition Zposition Xrotation Yrotation Zrotation
											JOINT mixamorig:LeftHandThumb4
											{
												OFFSET 2.020889 -1.154053 1.115139
												CHANNELS 6 Xposition Yposition Zposition Xrotation Yrotation Zrotation
												End Site
												{
													OFFSET 190.885437 -115.081749 130.048782
												}
											}
										}
									}
								}
								JOINT mixamorig:LeftHandIndex1
								{
									OFFSET 9.109314 -0.518021 2.259871
									CHANNELS 6 Xposition Yposition Zposition Xrotation Yrotation Zrotation
									JOINT mixamorig:LeftHandIndex2
									{
										OFFSET 3.699989 0.000000 -0.000322
										CHANNELS 6 Xposition Yposition Zposition Xrotation Yrotation Zrotation
										JOINT mixamorig:LeftHandIndex3
										{
											OFFSET 2.850006 0.000000 0.000352
											CHANNELS 6 Xposition Yposition Zposition Xrotation Yrotation Zrotation
											JOINT mixamorig:LeftHandIndex4
											{
												OFFSET 2.774864 -0.000031 -0.000027
												CHANNELS 6 Xposition Yposition Zposition Xrotation Yrotation Zrotation
												End Site
												{
													OFFSET 277.486267 0.000000 -0.009857
												}
											}
										}
									}
								}
								JOINT mixamorig:LeftHandMiddle1
								{
									OFFSET 9.533394 0.000061 0.000044
									CHANNELS 6 Xposition Yposition Zposition Xrotation Yrotation Zrotation
									JOINT mixamorig:LeftHandMiddle2
									{
										OFFSET 3.699989 -0.000015 -0.000231
										CHANNELS 6 Xposition Yposition Zposition Xrotation Yrotation Zrotation
										JOINT mixamorig:LeftHandMiddle3
										{
											OFFSET 2.949997 -0.000015 -0.000059
											CHANNELS 6 Xposition Yposition Zposition Xrotation Yrotation Zrotation
											JOINT mixamorig:LeftHandMiddle4
											{
												OFFSET 2.952896 0.000031 0.000063
												CHANNELS 6 Xposition Yposition Zposition Xrotation Yrotation Zrotation
												End Site
												{
													OFFSET 295.289337 0.000000 0.022810
												}
											}
										}
									}
								}
								JOINT mixamorig:LeftHandRing1
								{
									OFFSET 9.104523 -0.042999 -1.865074
									CHANNELS 6 Xposition Yposition Zposition Xrotation Yrotation Zrotation
									JOINT mixamorig:LeftHandRing2
									{
										OFFSET 3.150009 -0.000031 0.000043
										CHANNELS 6 Xposition Yposition Zposition Xrotation Yrotation Zrotation
										JOINT mixamorig:LeftHandRing3
										{
											OFFSET 2.949982 -0.000015 0.000040
											CHANNELS 6 Xposition Yposition Zposition Xrotation Yrotation Zrotation
											JOINT mixamorig:LeftHandRing4
											{
												OFFSET 2.644348 0.000000 0.000057
												CHANNELS 6 Xposition Yposition Zposition Xrotation Yrotation Zrotation
												End Site
												{
													OFFSET 264.434631 0.000000 0.012105
												}
											}
										}
									}
								}
								JOINT mixamorig:LeftHandPinky1
								{
									OFFSET 8.077789 -0.486847 -3.806259
									CHANNELS 6 Xposition Yposition Zposition Xrotation Yrotation Zrotation
									JOINT mixamorig:LeftHandPinky2
									{
										OFFSET 3.599953 0.000031 0.014727
										CHANNELS 6 Xposition Yposition Zposition Xrotation Yrotation Zrotation
										JOINT mixamorig:LeftHandPinky3
										{
											OFFSET 2.100021 0.000015 0.007705
											CHANNELS 6 Xposition Yposition Zposition Xrotation Yrotation Zrotation
											JOINT mixamorig:LeftHandPinky4
											{
												OFFSET 2.125504 0.000031 0.007517
												CHANNELS 6 Xposition Yposition Zposition Xrotation Yrotation Zrotation
												End Site
												{
													OFFSET 212.550781 0.000000 0.625752
												}
											}
										}
									}
								}
							}
						}
					}
				}
			}
		}
	}
	JOINT mixamorig:RightUpLeg
	{
		OFFSET -8.207787 -6.751648 -1.599560
		CHANNELS 6 Xposition Yposition Zposition Xrotation Yrotation Zrotation
		JOINT mixamorig:RightLeg
		{
			OFFSET -0.000002 -44.370117 0.345942
			CHANNELS 6 Xposition Yposition Zposition Xrotation Yrotation Zrotation
			JOINT mixamorig:RightFoot
			{
				OFFSET 0.000003 -44.423679 -3.043532
				CHANNELS 6 Xposition Yposition Zposition Xrotation Yrotation Zrotation
				JOINT mixamorig:RightToeBase
				{
					OFFSET -0.000002 -8.728671 10.710558
					CHANNELS 6 Xposition Yposition Zposition Xrotation Yrotation Zrotation
					JOINT mixamorig:RightToe_End
					{
						OFFSET -0.000001 -0.000679 9.278119
						CHANNELS 6 Xposition Yposition Zposition Xrotation Yrotation Zrotation
						End Site
						{
							OFFSET 0.000000 -0.067690 927.812134
						}
					}
				}
			}
		}
	}
	JOINT mixamorig:LeftUpLeg
	{
		OFFSET 8.207793 -6.751686 -1.599556
		CHANNELS 6 Xposition Yposition Zposition Xrotation Yrotation Zrotation
		JOINT mixamorig:LeftLeg
		{
			OFFSET -0.000004 -44.370014 0.346954
			CHANNELS 6 Xposition Yposition Zposition Xrotation Yrotation Zrotation
			JOINT mixamorig:LeftFoot
			{
				OFFSET -0.000001 -44.423672 -3.044401
				CHANNELS 6 Xposition Yposition Zposition Xrotation Yrotation Zrotation
				JOINT mixamorig:LeftToeBase
				{
					OFFSET -0.000002 -8.728669 10.710558
					CHANNELS 6 Xposition Yposition Zposition Xrotation Yrotation Zrotation
					JOINT mixamorig:LeftToe_End
					{
						OFFSET -0.000003 -0.000679 9.278133
						CHANNELS 6 Xposition Yposition Zposition Xrotation Yrotation Zrotation
						End Site
						{
							OFFSET 0.000000 -0.068021 927.813477
						}
					}
				}
			}
		}
	}
}
MOTION
Frames: 3
Frame Time: 0.033333
0.000006 104.270477 1.554256 0.000010 0.000003 -0.000113 -0.000005 10.181587 0.131522 0.000001 -0.000003 0.000084 -0.000000 9.893967 -1.470711 0.000001 0.000000 -0.000000 -0.000000 9.220802 -1.370642 0.000000 -0.000000 -0.000000 0.000001 16.740433 -2.049030 0.000000 -0.000000 -0.000000 0.000000 9.617859 1.685014 0.000000 0.000000 0.000000 0.000002 22.037384 7.501101 0.000000 -0.000000 0.000000 -4.569968 11.014880 -2.160881 0.000008 0.000001 -0.000038 -10.592872 -0.524785 -2.231876 77.505285 33.920266 -27.509640 -27.841505 0.000009 0.000529 -49.923857 108.010262 65.305481 -28.328823 0.000022 0.000028 -0.000317 -0.000045 0.000008 -2.464415 -1.573788 2.682328 -47.124474 -162.262291 -8.100247 -3.215253 -1.872530 1.924627 150.978381 32.973927 17.190090 -2.654949 -1.527883 1.513068 147.764955 27.395344 -30.925953 -2.018831 -1.152019 1.108051 -0.000002 0.000000 0.000004 -9.108378 -0.517555 2.260117 99.461570 16.599414 -19.596233 -3.700081 0.000310 0.001504 95.958796 13.788649 -15.259537 -2.850096 0.000357 -0.000268 94.020566 11.648711 -12.488730 -2.772177 -0.000001 -0.000023 0.000002 -0.000001 -0.000001 -9.532581 0.000263 0.000229 90.527812 16.055855 -16.346137 -3.700079 0.000325 0.003950 90.465234 11.583078 -11.582005 -2.950060 0.000347 -0.001807 92.859789 11.394574 -11.966418 -2.946624 0.000010 -0.000154 0.000002 -0.000003 -0.000000 -9.103706 -0.042776 -1.864874 89.448820 18.268032 -18.051334 -3.379325 0.000309 -0.000824 89.194245 8.633626 -8.530395 -2.889745 0.000348 0.000619 95.759819 6.351805 -7.073071 -2.638796 -0.000004 0.000940 0.000001 -0.000001 0.000001 -8.076767 -0.486411 -3.806045 82.841206 20.125161 -17.658419 -3.600038 0.000272 -0.003550 82.668723 8.445422 -7.118474 -2.099999 0.000328 -0.005503 85.943335 4.374802 -3.875070 -2.115771 -0.000037 -0.003673 -0.000000 0.000003 -0.000005 4.570446 11.014691 -2.160851 -0.000018 0.000010 -0.000021 10.592535 -0.524527 -2.232402 74.095340 -64.408015 50.856137 27.841703 -0.000064 -0.000105 87.544563 -105.764393 103.387515 28.328831 -0.000014 0.000018 0.000022 -0.000091 0.000000 2.466171 -1.576132 2.681872 -28.561520 -24.494211 12.409387 3.217847 -1.871939 1.916602 -49.449928 -3.105624 13.335034 2.656061 -1.528745 1.514645 -56.411598 3.978159 15.630545 2.020903 -1.154054 1.115146 -0.000000 0.000009 0.000004 9.109261 -0.517770 2.260108 -112.504711 -10.069233 -15.011460 3.699940 0.000232 -0.000085 -112.925662 -11.949133 -17.961045 2.849956 0.000258 0.000583 -112.890917 -10.997225 -16.515189 2.774895 -0.000030 -0.000027 0.000001 -0.000001 -0.000003 9.533381 0.000300 0.000273 -108.664662 -8.325207 -11.572123 3.699966 0.000212 0.000016 -106.547591 -9.314820 -12.460647 2.949984 0.000209 0.000173 -105.138324 -9.528570 -12.431364 2.952865 -0.000033 0.000062 0.000000 0.000001 -0.000000 9.104499 -0.042801 -1.864834 75.671372 -172.081821 169.813966 3.149960 0.000250 0.000299 -102.271831 -10.037824 -12.440366 2.949944 0.000231 0.000296 -100.326183 -9.429086 -11.292659 2.644331 0.000030 0.000053 0.000001 0.000003 0.000001 8.077749 -0.486646 -3.806013 -103.794963 -9.796799 -12.955589 3.599911 0.000268 0.014996 -106.145593 -8.381699 -11.603393 2.099966 0.000249 0.007958 -104.753921 -5.259291 -7.290947 2.125504 -0.000017 0.007510 -0.000001 -0.000001 0.000000 -8.207786 -6.751667 -1.599560 -0.077001 -0.000003 0.000080 -0.000002 -44.370110 0.345938 0.153719 -0.000000 -0.000000 0.000000 -44.423679 -3.043532 -0.076700 0.000000 -0.000002 -0.000006 -8.728667 10.710559 -0.000009 -0.000000 -0.000000 -0.000001 -0.000679 9.278123 0.000000 -0.000000 -0.000000 8.207792 -6.751710 -1.599556 -0.074518 -0.000003 0.000081 -0.000002 -44.370014 0.346960 0.148822 0.000002 0.000000 -0.000001 -44.423664 -3.044403 -0.074314 0.000000 -0.000002 -0.000004 -8.728671 10.710558 0.000007 -0.000000 -0.000000 0.000000 -0.000680 9.278137 -0.000000 0.000000 -0.000001 
0.000006 104.270477 1.554256 0.000010 0.000003 -0.000113 -0.000005 10.181587 0.131522 0.000001 -0.000003 0.000084 -0.000000 9.893967 -1.470711 0.000001 0.000000 -0.000000 -0.000000 9.220802 -1.370642 0.000000 -0.000000 -0.000000 0.000001 16.740433 -2.049030 0.000000 -0.000000 -0.000000 0.000000 9.617859 1.685014 0.000000 0.000000 0.000000 0.000002 22.037384 7.501101 0.000000 -0.000000 0.000000 -4.569968 11.014880 -2.160881 0.000008 0.000001 -0.000038 -10.592865 -0.524788 -2.231868 77.579775 37.001717 -30.105688 -27.841515 0.000010 0.000558 -49.950099 106.436060 63.847939 -28.328814 0.000009 0.000033 -0.000323 -0.000043 0.000007 -2.464410 -1.573820 2.682329 -45.661430 -160.570562 -4.692827 -3.215264 -1.872518 1.924624 150.057057 33.219182 20.627921 -2.654964 -1.527878 1.513067 147.326675 27.473944 -30.782368 -2.018823 -1.151997 1.108053 -0.000001 -0.000003 0.000004 -9.108387 -0.517559 2.260128 99.484048 16.452252 -19.431441 -3.700062 0.000312 0.001518 95.897379 13.691941 -15.136486 -2.850088 0.000351 -0.000258 93.788305 11.567292 -12.351629 -2.772161 -0.000016 -0.000021 0.000001 -0.000002 -0.000001 -9.532583 0.000271 0.000231 90.997647 16.431135 -16.861029 -3.700081 0.000333 0.003961 90.519029 12.035982 -12.049255 -2.950043 0.000328 -0.001834 92.378712 11.497800 -11.974471 -2.946632 -0.000000 -0.000155 -0.000002 0.000001 -0.000000 -9.103697 -0.042769 -1.864892 89.711058 18.786312 -18.648389 -3.379327 0.000319 -0.000817 89.047253 9.561679 -9.421749 -2.889756 0.000355 0.000629 95.212687 6.811620 -7.509366 -2.638804 -0.000003 0.000942 -0.000000 0.000000 0.000004 -8.076761 -0.486420 -3.806048 82.018100 20.778204 -17.979691 -3.600036 0.000269 -0.003542 82.747072 9.681090 -8.213050 -2.100013 0.000318 -0.005513 86.319596 5.123308 -4.600462 -2.115750 -0.000056 -0.003685 -0.000002 -0.000002 -0.000001 4.570446 11.014691 -2.160851 -0.000018 0.000010 -0.000021 10.592533 -0.524527 -2.232401 74.742221 -65.967449 52.733753 27.841709 -0.000055 -0.000093 88.094755 -105.392278 103.547300 28.328835 -0.000028 0.000037 0.000018 -0.000087 0.000002 2.466170 -1.576151 2.681880 -31.664935 -21.781723 12.091324 3.217845 -1.871942 1.916584 -51.897789 -0.596136 14.012805 2.656067 -1.528739 1.514664 -62.585358 8.791287 18.137347 2.020894 -1.154097 1.115150 -0.000000 -0.000001 0.000004 9.109262 -0.517752 2.260103 -119.262807 -10.735656 -18.207261 3.699926 0.000240 -0.000094 -117.567773 -14.301446 -23.408028 2.849935 0.000267 0.000580 -117.388494 -13.681050 -22.316050 2.774885 -0.000046 -0.000027 0.000001 -0.000001 0.000001 9.533353 0.000309 0.000276 -115.515970 -8.603998 -13.592902 3.699959 0.000226 0.000019 -111.090199 -10.004316 -14.537004 2.949961 0.000207 0.000175 -108.493204 -10.845524 -15.024647 2.952865 -0.000013 0.000064 0.000000 0.000001 0.000000 9.104487 -0.042783 -1.864828 69.306756 -171.177354 167.261839 3.149967 0.000272 0.000272 -107.400989 -8.504625 -11.561518 2.949949 0.000242 0.000309 -104.721027 -8.243248 -10.677906 2.644320 0.000033 0.000052 0.000000 -0.000000 -0.000001 8.077734 -0.486630 -3.806009 -111.599943 -10.320110 -15.677355 3.599926 0.000277 0.014993 -110.570360 -6.528788 -9.939283 2.099974 0.000261 0.007959 -107.627771 -4.147131 -6.174200 2.125503 -0.000030 0.007517 0.000000 0.000000 0.000000 -8.207786 -6.751667 -1.599560 -0.077001 -0.000003 0.000080 -0.000002 -44.370110 0.345938 0.153719 -0.000000 -0.000000 0.000000 -44.423679 -3.043532 -0.076700 0.000000 -0.000002 -0.000006 -8.728667 10.710559 -0.000009 -0.000000 -0.000000 -0.000001 -0.000679 9.278123 0.000000 -0.000000 -0.000000 8.207792 -6.751710 -1.599556 -0.074518 -0.000003 0.000081 -0.000002 -44.370014 0.346960 0.148822 0.000002 0.000000 -0.000001 -44.423664 -3.044403 -0.074314 0.000000 -0.000002 -0.000004 -8.728671 10.710558 0.000007 -0.000000 -0.000000 0.000000 -0.000680 9.278137 -0.000000 0.000000 -0.000001 
0.000006 104.270477 1.554256 0.000010 0.000003 -0.000113 -0.000005 10.181587 0.131522 0.000001 -0.000003 0.000084 -0.000000 9.893967 -1.470711 0.000001 0.000000 -0.000000 -0.000000 9.220802 -1.370642 0.000000 -0.000000 -0.000000 0.000001 16.740433 -2.049030 0.000000 -0.000000 -0.000000 0.000000 9.617859 1.685014 0.000000 0.000000 0.000000 0.000002 22.037384 7.501101 0.000000 -0.000000 0.000000 -4.569968 11.014880 -2.160881 0.000008 0.000001 -0.000038 -10.592867 -0.524783 -2.231863 77.720818 35.392114 -28.835788 -27.841515 -0.000001 0.000531 -50.055144 106.062558 63.622037 -28.328823 -0.000003 0.000024 -0.000323 -0.000046 0.000008 -2.464393 -1.573816 2.682328 -45.945030 -161.045506 -5.313168 -3.215259 -1.872529 1.924624 150.714558 33.069276 18.324849 -2.654967 -1.527894 1.513062 147.149035 27.459442 -31.211871 -2.018819 -1.151982 1.108071 -0.000005 -0.000002 0.000005 -9.108370 -0.517555 2.260123 99.265202 16.747096 -19.701998 -3.700066 0.000306 0.001513 95.990748 14.218682 -15.743758 -2.850089 0.000365 -0.000264 94.010287 12.100579 -12.970372 -2.772184 -0.000015 -0.000019 -0.000001 0.000002 -0.000001 -9.532581 0.000259 0.000227 90.920439 16.387010 -16.793767 -3.700073 0.000319 0.003957 90.225672 11.974082 -11.926098 -2.950052 0.000341 -0.001814 91.841927 11.703259 -12.075550 -2.946637 0.000004 -0.000158 0.000003 -0.000001 -0.000001 -9.103689 -0.042779 -1.864879 90.162459 18.511688 -18.518009 -3.379340 0.000312 -0.000827 88.865337 8.990984 -8.832242 -2.889766 0.000348 0.000628 94.663157 6.632591 -7.243377 -2.638806 -0.000002 0.000942 -0.000003 0.000002 0.000002 -8.076754 -0.486413 -3.806039 83.185516 20.599511 -18.187260 -3.600043 0.000273 -0.003534 83.506057 9.053057 -7.764322 -2.100011 0.000323 -0.005520 86.200519 4.784192 -4.274490 -2.115769 -0.000040 -0.003680 -0.000002 -0.000000 -0.000003 4.570446 11.014691 -2.160851 -0.000018 0.000010 -0.000021 10.592537 -0.524528 -2.232400 75.468645 -64.502927 52.051492 27.841717 -0.000071 -0.000091 87.920907 -104.704853 102.684593 28.328821 -0.000027 0.000035 0.000024 -0.000088 0.000001 2.466172 -1.576165 2.681868 -15.950355 -32.675888 14.632435 3.217838 -1.871948 1.916588 -47.754326 -0.960462 12.960649 2.656052 -1.528746 1.514621 -67.716961 14.647991 20.928463 2.020883 -1.154054 1.115142 0.000002 0.000006 0.000006 9.109133 -0.517970 2.260043 -153.067299 -48.086550 -123.562534 3.700086 0.000051 -0.000383 -270.033305 -42.079344 42.076926 2.850044 0.000012 0.000375 -33.520758 -131.055785 -66.987620 2.774891 -0.000013 -0.000031 -0.000000 -0.000002 0.000004 9.533314 0.000390 0.000216 -146.093990 -7.249494 -23.462070 3.700101 0.000114 -0.000303 -250.458420 -33.910735 46.698034 2.949942 -0.000013 0.000022 -13.957175 -118.999640 -23.473564 2.952874 -0.000034 0.000073 0.000002 0.000003 -0.000000 9.104413 -0.042711 -1.864875 43.713050 -167.506510 149.469975 3.150104 0.000182 0.000010 -228.542337 -22.878487 48.340899 2.949715 0.000097 0.000297 -137.859036 -63.114629 -115.798208 2.644325 0.000030 0.000057 -0.000001 -0.000001 -0.000000 8.077656 -0.486512 -3.806091 -155.170669 -8.143451 -37.083160 3.599743 0.000006 0.014671 -8.848459 120.229224 14.673186 2.099904 0.000024 0.007585 15.923521 54.542517 -8.418348 2.125502 -0.000025 0.007519 0.000001 -0.000001 -0.000002 -8.207786 -6.751667 -1.599560 -0.077001 -0.000003 0.000080 -0.000002 -44.370110 0.345938 0.153719 -0.000000 -0.000000 0.000000 -44.423679 -3.043532 -0.076700 0.000000 -0.000002 -0.000006 -8.728667 10.710559 -0.000009 -0.000000 -0.000000 -0.000001 -0.000679 9.278123 0.000000 -0.000000 -0.000000 8.207792 -6.751710 -1.599556 -0.074518 -0.000003 0.000081 -0.000002 -44.370014 0.346960 0.148822 0.000002 0.000000 -0.000001 -44.423664 -3.044403 -0.074314 0.000000 -0.000002 -0.000004 -8.728671 10.710558 0.000007 -0.000000 -0.000000 0.000000 -0.000680 9.278137 -0.000000 0.000000 -0.000001 
